PathFileType	4	(X/Y/Z)	54_1_50_p1_0-1668_filt_butterworth.trc
DataRate	CameraRate	NumFrames	NumMarkers	Units	OrigDataRate	OrigDataStartFrame	OrigNumFrames
44.0	44.0	6	27	m	44.0	1459	1668
Frame#	Time	RHip			RKnee			RAnkle			RBigToe			RSmallToe			RHeel			LHip			LKnee			LAnkle			LBigToe			LSmallToe			LHeel			Neck			Head			Nose			RShoulder			RElbow			RWrist			RThumb			RIndex			RPinky			LShoulder			LElbow			LWrist			LThumb			LIndex			LPinky			
		X1	Y1	Z1	X2	Y2	Z2	X3	Y3	Z3	X4	Y4	Z4	X5	Y5	Z5	X6	Y6	Z6	X7	Y7	Z7	X8	Y8	Z8	X9	Y9	Z9	X10	Y10	Z10	X11	Y11	Z11	X12	Y12	Z12	X13	Y13	Z13	X14	Y14	Z14	X15	Y15	Z15	X16	Y16	Z16	X17	Y17	Z17	X18	Y18	Z18	X19	Y19	Z19	X20	Y20	Z20	X21	Y21	Z21	X22	Y22	Z22	X23	Y23	Z23	X24	Y24	Z24	X25	Y25	Z25	X26	Y26	Z26	X27	Y27	Z27	
1459	33.15909090909091	0.28511835116954015	0.5157402990348675	0.9829936732176419	0.25681000768476764	0.47510658464128014	1.431448610381089	0.28318284206517486	0.5419508246242373	1.924199350127463	0.2089297944621244	0.3349987345776924	1.9288284462452352	0.27886906454341687	0.3779598802200396	1.9576762914582218	0.2684971230363667	0.6438857890656797	2.013629536074708	0.0768769224060746	0.529959879937676	0.9682851638591716	0.072598869788081	0.5483936156855778	1.4520899799492673	0.062336413203791734	0.5628030675918823	1.8890461797405735	0.065208531848741	0.36709907858989227	1.9380672772399294	0.013377490418713299	0.42467328874518695	1.9621466804071606	0.07994306694322757	0.6042542865368821	1.951743535838874	0.2389739227250176	0.4860783793145886	0.3788109981421881	0.32273581286179764	0.5163979919622617	0.1660208689991943	0.28654220568434535	0.45385563914301774	0.266291483477872	0.3694092918634927	0.41868616782147	0.43863399845477324	0.4645128688449067	0.18781685500185777	0.35909007711829044	0.42404878894392195	-0.037902462568147305	0.19696531530273167	0.34507487090177275	-0.08294522384782804	0.14226854145608017	0.3544543860843686	-0.09993135376797245	0.13114782914968431	0.3863196235367811	-0.13067788400716557	0.14959885430676204	0.08529842228500627	0.5386466387044581	0.4153274347816124	-0.11836434788603864	0.402001852048334	0.33622332476170763	-0.27208756049310223	0.24639655985369022	0.2007954904084	-0.28314651159103066	0.11444950685236192	0.11918569981738213	-0.29555461400025096	0.1406857003511784	0.10452693081142196	-0.31405790620390783	0.14297933699092377	0.12454529577913728
1460	33.18181818181818	0.2851516941209622	0.5237529769889979	0.9873593161004237	0.2568450830262865	0.47533725709255925	1.4301753240676547	0.2823052744859947	0.5415949641397749	1.92457404506854	0.21023041892640426	0.3386178291715617	1.9316220300434899	0.2788718727481927	0.37824321507894243	1.9576648024820806	0.2682657199110803	0.644083343231602	2.013554672650532	0.07785410742348663	0.5338302957437662	0.9709980122154103	0.07270113454235468	0.5486758477316783	1.4536180577876707	0.062182142469825286	0.5627965376602941	1.889008861780749	0.06522618224733394	0.36713249602791376	1.9381064204322471	0.01337743240534222	0.4247301076068828	1.9621661145119504	0.07998549555490889	0.604024382511299	1.9516881976090348	0.23875028874570506	0.4809336273226594	0.38111029120359596	0.3203937730697604	0.5110653369996502	0.1687468583558595	0.28736169102449394	0.45059148737856536	0.2690119338702082	0.37412418747777837	0.4242669943093149	0.4452973282007517	0.4826709892783022	0.19283128295127946	0.38042469836023024	0.4392821281407897	-0.03318078769925711	0.23735273601840862	0.362551313127379	-0.09919598752405549	0.17869467003151002	0.37039589811924595	-0.11060935187794549	0.1704572550954313	0.40139012418033243	-0.14458413025806496	0.1901654358548842	0.08017176249333484	0.5297280376319985	0.4167557010967948	-0.1311885026311543	0.4108822250835803	0.3486621643493595	-0.29582347534848064	0.24701463477211597	0.22603943461837264	-0.31560018388604105	0.10309676926659478	0.15250085796051974	-0.32272406939251774	0.13210817746940268	0.13019369238751494	-0.34538146671219705	0.13598666410939975	0.15596793367797793
1461	33.20454545454545	0.2851331251699567	0.5294332940106592	0.9904593594757761	0.2563907916230264	0.47519659660564484	1.4296620896193142	0.28177483605224224	0.5413273047499763	1.9259997491378429	0.2102326630300949	0.3386379396301821	1.931627987573547	0.2788385429242519	0.3783506568363125	1.9576709537786858	0.2683172248501913	0.6449767817680959	2.013954196230374	0.07807536932375332	0.5335464796281448	0.9704545558588428	0.07381107962922857	0.5492575099103945	1.4545856792486345	0.06213334791969424	0.5628154140976451	1.8890049794890422	0.06522371733620727	0.367174166281114	1.9381225516117038	0.013366242346194546	0.42474038665033453	1.9621203511871341	0.07966772759667952	0.6034994224217244	1.9519315442760794	0.23753886629086027	0.4773828019070725	0.3845019695019241	0.31385099117292203	0.5028287628620984	0.17062103810404528	0.2838166373615004	0.43458739590052164	0.26967517437206556	0.3786077384004855	0.43235215489945666	0.4524742816266644	0.5073516615038884	0.21784150225317328	0.4032797717276483	0.45967273885485016	-0.026035763424969362	0.2808558978885023	0.38456009442531375	-0.09949442425588222	0.2149610369044555	0.3972604734037468	-0.11839797292937575	0.21221644063616169	0.42527744777441717	-0.15257316608155816	0.23219683901881763	0.07498903508214355	0.5221654072055881	0.418091349746961	-0.1452333086109709	0.4187011845261927	0.35659892061844506	-0.31583081519120976	0.2443237218108451	0.25057063606037355	-0.34781111932004655	0.10667624765582602	0.18766810664698683	-0.35188914494805995	0.12766898441557245	0.1602207742341493	-0.37825169948225373	0.14920225818326624	0.18906648012258473
1462	33.22727272727273	0.2852059495733891	0.5321441524979031	0.9889406244574172	0.2560152372878161	0.4745528140053835	1.4298653616133254	0.2821283465528679	0.5415638009392822	1.9267274193960555	0.20892200911208403	0.334965752803255	1.9288236130713154	0.278786266133749	0.3783088683627994	1.9576852169801109	0.26860123317811735	0.6456167425962038	2.0144511719911256	0.0776154641739986	0.532995294787334	0.9693846993123969	0.07558847976968336	0.5503117462733145	1.455032914437745	0.0621630591310189	0.5628049420207228	1.8890079923262508	0.06520198766762225	0.36721235167051614	1.9381272881567058	0.013352842267671533	0.4247468896658928	1.962069703445003	0.07960960608607906	0.6034251271026657	1.9517991015855733	0.23639835403221793	0.47530724037532457	0.3863677207622742	0.30820032883315684	0.4960331331022374	0.1700891441426755	0.2807568421556331	0.4237537789742238	0.27062108792618034	0.38278324208630576	0.43879592323365174	0.4558159993736483	0.5322776213899367	0.2542440225825662	0.42786327948099523	0.48433633881655275	-0.019602669898336315	0.31318004593060117	0.4081767846146667	-0.09860729310067828	0.2474182309832686	0.4247213200954597	-0.1246444281751507	0.24817128519923642	0.4536521572372785	-0.1562793350457616	0.27007077485854103	0.07107634281655	0.5195319368723312	0.41848722628694707	-0.15249386427197625	0.4145581587180537	0.36162477101398893	-0.32825201896347717	0.24392316873478506	0.27232914407394204	-0.3820658813715472	0.13718623622601311	0.22389672277407482	-0.3844966238767382	0.14695453494336413	0.19524861188858747	-0.40683043984946143	0.18005010141846015	0.22609558734164573
1463	33.25	0.2859467863835169	0.5302439690899206	0.9839687612736951	0.2563171101809333	0.474450006784396	1.4300637503816112	0.2825813962642659	0.5419201132202953	1.9263496161661768	0.2078075127970363	0.3317210690688761	1.9265394500385202	0.27872787381616615	0.378167587460398	1.9577197264311477	0.2688089394949207	0.6456552876905036	2.0146409757655857	0.07865692843872238	0.5336444945657927	0.9695795973865917	0.07673803858961492	0.5510239699025254	1.4549481617634645	0.06223365040263566	0.5627290698899943	1.88900445295013	0.06516533552410227	0.36720644398607777	1.9380957323722818	0.013349252139721171	0.4247604279598346	1.9620418772509904	0.07996328654204532	0.6033360719228325	1.9501210559414817	0.23585161692816986	0.47454463303736244	0.3869015812651544	0.30598667727080087	0.4930356483733024	0.16915219447503715	0.27958697668349997	0.4236812221227003	0.27248166311577304	0.3856332182066277	0.4429628656281936	0.4558565455051861	0.552657258553734	0.27988766642339247	0.44185306236270994	0.5081193023494667	-0.017245466826815277	0.3293796029350439	0.43076839497936653	-0.10109477293723666	0.27193205484829225	0.44701380044565286	-0.12644613879769995	0.26948888222915846	0.4815423519572587	-0.15893062706114275	0.2965593244389859	0.06881108113816076	0.5192505521868473	0.4184581094311006	-0.15386976931049223	0.40682778850091117	0.3649219534175429	-0.3339328217392611	0.25009720632929927	0.2870689988279015	-0.40895738685654537	0.17562287471439322	0.2547824329016559	-0.4114815159348978	0.18110612362588832	0.22851766066663026	-0.4240313042968962	0.2058763770611969	0.2570026816692155
1464	33.27272727272727	0.287375814620948	0.5241903565604933	0.9810783204145264	0.25774376446219743	0.47726345790268687	1.4300299274935095	0.2827114016322604	0.5420581599690356	1.9259305332652423	0.2075269999570215	0.33076460804860885	1.9261141148834215	0.2786857723147512	0.37796292160197503	1.9577294332969002	0.26882299241717905	0.6453628801492307	2.0145227456319343	0.08153253059957022	0.5347666895182295	0.970468174282343	0.0768744854381409	0.5509060591036696	1.4540354634022277	0.06232128381714348	0.5626301008425849	1.8889990256702118	0.06512328552340962	0.36710495826988865	1.938000832781286	0.01335520849153278	0.42474227368416384	1.9620167647382911	0.08054296722173522	0.6029940792669465	1.94740698984538	0.2359540122755453	0.47392010525838135	0.3873332065336992	0.3058491100387053	0.4924334857532139	0.16906038495247444	0.2791912186992608	0.4223023429343242	0.27306821626125893	0.3864359154821345	0.4446024498493599	0.45614139486531535	0.5675635847866256	0.28737560991258626	0.445744078406291	0.5287352210852738	-0.01759240432486038	0.33663968157025626	0.4531908235164352	-0.10086537214618588	0.2881587177127948	0.4693921232168281	-0.12765521161187257	0.28017166162063656	0.5043739960096808	-0.160483393467474	0.3099237714628542	0.0670142893719553	0.5188237625268979	0.41899832145459853	-0.15466200044456682	0.4094893734412133	0.3687032129751258	-0.3390331222622137	0.26285788195420606	0.2962825454103443	-0.42251203291953715	0.1981290507215941	0.27657554793895833	-0.42552813082602436	0.20326793637408994	0.2534662859705305	-0.4308514269259384	0.2128923663859102	0.2723993775597711
